<?xml version="1.0" standalone="no"?>
<!DOCTYPE svg PUBLIC "-//W3C//DTD SVG 20010904//EN"
 "http://www.w3.org/TR/2001/REC-SVG-20010904/DTD/svg10.dtd">
<svg version="1.0" xmlns="http://www.w3.org/2000/svg"
 width="218.000000pt" height="207.000000pt" viewBox="0 0 218.000000 207.000000"
 preserveAspectRatio="xMidYMid meet">

<g transform="translate(0.000000,207.000000) scale(0.100000,-0.100000)"
fill="#000000" stroke="none">
<path d="M899 1965 c-231 -44 -444 -171 -584 -347 -275 -348 -255 -823 49
-1145 299 -317 777 -398 1174 -199 453 228 635 742 418 1181 -121 245 -353
427 -631 496 -107 27 -321 34 -426 14z m421 -65 c276 -71 505 -262 611 -510
46 -108 62 -192 62 -320 0 -175 -40 -307 -138 -455 -124 -187 -319 -320 -552
-377 -113 -27 -301 -29 -418 -3 -364 78 -640 356 -701 706 -78 448 246 883
724 974 108 20 301 13 412 -15z"/>
<path d="M772 1575 c-69 -30 -80 -135 -21 -189 28 -25 38 -28 81 -24 56 6 83
26 99 75 16 51 -2 108 -44 133 -38 23 -70 25 -115 5z m103 -40 c53 -52 19
-145 -52 -145 -46 0 -73 30 -73 80 0 49 35 90 75 90 14 0 37 -11 50 -25z"/>
<path d="M1090 1540 c0 -27 -3 -50 -7 -50 -5 1 -24 21 -43 45 -19 25 -43 45
-53 45 -20 0 -17 -5 42 -80 l20 -25 -36 -45 c-59 -73 -57 -70 -35 -70 12 0 34
19 58 50 21 28 42 50 46 50 4 0 8 -22 8 -50 0 -37 4 -50 15 -50 10 0 15 15 17
55 l3 56 43 -56 c24 -30 50 -55 58 -55 20 0 18 5 -27 66 l-42 54 42 50 c35 42
39 50 23 50 -11 0 -38 -21 -61 -47 l-40 -48 -1 53 c0 39 -4 52 -15 52 -11 0
-15 -12 -15 -50z"/>
<path d="M513 1504 c-7 -52 -17 -82 -32 -98 -25 -27 -30 -96 -6 -96 9 0 15 9
15 25 0 25 1 25 80 25 79 0 80 0 80 -25 0 -16 6 -25 15 -25 11 0 15 11 15 39
0 25 -5 41 -15 45 -12 4 -15 25 -15 96 l0 90 -63 0 -63 0 -11 -76z m107 -29
l0 -85 -51 0 c-49 0 -51 1 -45 23 4 12 12 50 19 85 11 61 11 62 44 62 l33 0 0
-85z"/>
<path d="M1317 1515 c-6 -65 -29 -125 -47 -125 -6 0 -10 -18 -10 -40 0 -29 4
-40 15 -40 9 0 15 9 15 25 0 25 1 25 79 25 74 0 80 -2 83 -22 6 -41 28 -32 28
11 0 23 -4 41 -10 41 -6 0 -10 38 -10 95 l0 95 -69 0 -68 0 -6 -65z m103 -40
l0 -85 -50 0 c-27 0 -50 2 -50 4 0 2 7 23 15 46 8 23 15 57 15 75 0 39 6 45
42 45 l28 0 0 -85z"/>
<path d="M1532 1473 l3 -108 59 1 c67 2 96 24 96 74 0 37 -27 58 -80 62 -44 3
-45 4 -48 41 -2 24 -8 37 -18 37 -12 0 -14 -18 -12 -107z m112 -9 c33 -33 6
-74 -50 -74 -33 0 -34 1 -34 38 0 21 3 42 7 45 12 13 62 7 77 -9z"/>
<path d="M920 1130 c0 -70 2 -80 18 -80 9 0 32 23 52 52 l35 51 3 -51 c3 -44
6 -52 23 -52 17 0 19 7 19 80 0 71 -2 80 -18 80 -11 0 -34 -23 -58 -57 l-39
-57 -3 57 c-2 42 -7 57 -17 57 -12 0 -15 -17 -15 -80z"/>
<path d="M1113 1203 c-30 -11 -12 -30 28 -29 48 1 65 -20 25 -30 -32 -8 -34
-31 -4 -36 12 -2 23 -8 25 -15 6 -17 -30 -25 -61 -13 -24 9 -27 8 -24 -7 2
-14 15 -19 56 -21 47 -3 53 -1 64 22 9 22 8 29 -7 46 -10 11 -13 20 -7 20 16
0 15 43 0 58 -12 12 -71 15 -95 5z"/>
<path d="M664 836 c-30 -30 -34 -41 -34 -84 0 -59 24 -95 74 -112 41 -13 100
-1 104 22 3 14 -2 15 -32 6 -80 -25 -140 48 -105 125 19 41 78 59 120 37 16
-9 19 -7 19 9 0 23 -19 31 -72 31 -32 0 -47 -7 -74 -34z"/>
<path d="M907 864 c-4 -4 -7 -26 -7 -48 -1 -64 -16 -129 -34 -142 -9 -6 -16
-18 -16 -27 0 -13 5 -15 23 -8 30 11 45 46 54 127 8 69 8 69 41 72 l32 3 0
-100 c0 -95 1 -101 20 -101 20 0 21 5 18 113 l-3 112 -60 3 c-34 2 -64 0 -68
-4z"/>
<path d="M1150 853 c-52 -36 -70 -90 -47 -145 23 -53 51 -72 107 -72 41 0 55
5 80 29 78 75 28 205 -80 205 -20 0 -47 -8 -60 -17z m115 -38 c17 -17 25 -35
25 -60 0 -48 -13 -70 -50 -85 -63 -26 -120 30 -106 105 12 64 85 87 131 40z"/>
<path d="M1380 755 l0 -115 63 0 c49 0 68 4 80 18 22 24 22 78 1 90 -15 8 -15
11 1 35 32 49 -12 87 -101 87 l-44 0 0 -115z m113 63 c16 -24 -9 -48 -49 -48
-31 0 -34 3 -34 28 0 16 3 32 7 36 13 12 66 2 76 -16z m7 -93 c6 -8 9 -23 5
-35 -5 -16 -15 -20 -51 -20 -44 0 -44 0 -44 35 0 34 1 35 39 35 21 0 44 -6 51
-15z"/>
</g>
</svg>
